<svg xmlns="http://www.w3.org/2000/svg" viewBox="0 0 800 560" fill="none" role="img" aria-labelledby="grcp-title grcp-desc">
<title id="grcp-title">A framework for trusted decisions</title><desc id="grcp-desc">Governance pillars, a controls checklist and a protective lock represent an integrated governance, risk and compliance framework.</desc>
<defs>
 <linearGradient id="grcp-navy" x1="0" y1="0" x2="1" y2="1"><stop stop-color="#20496a"/><stop offset="1" stop-color="#0e2444"/></linearGradient>
 <linearGradient id="grcp-orange" x1="0" y1="0" x2="1" y2="1"><stop stop-color="#ffb866"/><stop offset="1" stop-color="#f0741a"/></linearGradient>
 <radialGradient id="grcp-halo"><stop stop-color="#e4edf4" stop-opacity=".9"/><stop offset="1" stop-color="#e4edf4" stop-opacity="0"/></radialGradient>
</defs>
<circle cx="410" cy="282" r="266" fill="url(#grcp-halo)"/>
<ellipse cx="409" cy="463" rx="271" ry="30" fill="#0e2444" opacity=".055"/>
<circle cx="408" cy="275" r="218" stroke="#b8cbd8" stroke-opacity=".45" stroke-dasharray="3 14"/>
<g stroke-linecap="round" stroke-linejoin="round"><path d="m141 407 260-66 260 66-260 68-260-68Z" fill="#dbe7ee"/><path d="m141 407 260 68v20l-260-68Z" fill="#b9cedb"/><path d="m401 475 260-68v20l-260 68Z" fill="#c9dce6"/><path d="m227 184 168-81 168 81v29H227v-29Z" fill="url(#grcp-navy)"/><path d="m260 180 135-57 135 57H260Z" fill="#315b78"/><path d="M393 145v22m-13-11h26" stroke="#c9a227" stroke-width="4"/><path d="M249 223h65v17h-65zM256 240h51v133h-51zM247 373h69v18h-69z" fill="#fff" stroke="#cbdce7" stroke-width="2"/><path d="M271 250v108M292 250v108" stroke="#dae6ed" stroke-width="4"/><path d="M363 223h65v17h-65zM370 240h51v133h-51zM361 373h69v18h-69z" fill="#fff" stroke="#cbdce7" stroke-width="2"/><path d="M385 250v108M406 250v108" stroke="#dae6ed" stroke-width="4"/><path d="M477 223h65v17h-65zM484 240h51v133h-51zM475 373h69v18h-69z" fill="#fff" stroke="#cbdce7" stroke-width="2"/><path d="M499 250v108M520 250v108" stroke="#dae6ed" stroke-width="4"/><rect x="219" y="395" width="353" height="20" rx="5" fill="#0e2444"/><rect x="206" y="415" width="379" height="19" rx="5" fill="#244861"/><rect x="108" y="274" width="147" height="158" rx="16" fill="#0e2444" opacity=".08"/><rect x="104" y="264" width="147" height="158" rx="16" fill="#fff" stroke="#dce6ee" stroke-width="2"/><rect x="122" y="288" width="19" height="19" rx="5" fill="#e1eee8"/><path d="m127 297 4 4 6-7" stroke="#0e7c7b" stroke-width="2.5"/><path d="M153 297H227" stroke="#cad8e3" stroke-width="5"/><rect x="122" y="328" width="19" height="19" rx="5" fill="#e1eee8"/><path d="m127 337 4 4 6-7" stroke="#0e7c7b" stroke-width="2.5"/><path d="M153 337H227" stroke="#cad8e3" stroke-width="5"/><rect x="122" y="368" width="19" height="19" rx="5" fill="#e1eee8"/><path d="m127 377 4 4 6-7" stroke="#0e7c7b" stroke-width="2.5"/><path d="M153 377H227" stroke="#cad8e3" stroke-width="5"/><path d="M592 248c24 21 49 27 81 30v54c0 51-39 78-81 97-42-19-81-46-81-97v-54c32-3 57-9 81-30Z" fill="url(#grcp-orange)"/><path d="M592 270c18 13 36 20 60 24v39c0 34-27 57-60 73-33-16-60-39-60-73v-39c24-4 42-11 60-24Z" stroke="#fff" stroke-opacity=".55" stroke-width="2"/><rect x="569" y="324" width="46" height="39" rx="8" fill="#0e2444"/><path d="M578 324v-11a14 14 0 0 1 28 0v11" stroke="#0e2444" stroke-width="6"/><circle cx="592" cy="341" r="4" fill="#ffcf99"/><path d="M592 341v8" stroke="#ffcf99" stroke-width="3"/><path d="M619 161h16M627 153v16" stroke="#c9a227" stroke-width="3"/><circle cx="664" cy="196" r="4" fill="#0e7c7b" opacity=".65"/></g>
</svg>