<svg viewBox="0 0 100 100" xmlns="http://www.w3.org/2000/svg"><defs><linearGradient id="o" x1="0" y1="0" x2="1" y2="1"><stop offset="0" stop-color="#FBA43C"/><stop offset="1" stop-color="#F0741A"/></linearGradient><linearGradient id="n" x1="0" y1="0" x2="1" y2="1"><stop offset="0" stop-color="#204777"/><stop offset="1" stop-color="#0E2444"/></linearGradient></defs><rect x="5" y="5" width="90" height="90" rx="26" fill="url(#n)"/><path d="M18 61c11-6 22-6 32 2V37c-10-7-21-8-32-2v26Z" fill="none" stroke="#fff" stroke-width="5" stroke-linejoin="round"/><path d="M82 61c-11-6-22-6-32 2V37c10-7 21-8 32-2v26Z" fill="none" stroke="#fff" stroke-width="5" stroke-linejoin="round"/><path d="M50 67V28M39 39l11-12 11 12" fill="none" stroke="url(#o)" stroke-width="7" stroke-linecap="round" stroke-linejoin="round"/><path d="M31 70c9 7 29 7 38 0" fill="none" stroke="url(#o)" stroke-width="5" stroke-linecap="round"/></svg>
